<?xml version="1.0" encoding="UTF-8"?>
<svg id="Layer_1" xmlns="http://www.w3.org/2000/svg" version="1.1" viewBox="0 0 441.8 107.8">
  <!-- Generator: Adobe Illustrator 29.0.1, SVG Export Plug-In . SVG Version: 2.1.0 Build 192)  -->
  <defs>
    <style>
      svg {
        transition: transform 0.5s ease;
      }

      .st0 {
        fill: currentColor;
      }

      .st1 {
        fill: none;
      }
    </style>
  </defs> 
  <path class="st0" d="M51.7,22.2c-2.9-3.2-7-4.9-12.1-4.9s-9.2,1.4-12,4.1-4.3,5.9-4.3,9.4c0,5,3.1,8.5,9.4,10.5,6.2,2,11.7,4,16.4,6,5.8,2.7,11.5,5.7,16.9,9,5.4,3.3,8.1,9.9,8.1,19.8s-3.5,15-10.4,21.4c-6.9,6.4-15.2,9.5-24.9,9.4-11.7,0-20.6-3.7-26.8-11.1-6.2-7.4-9.2-14.9-9.2-22.4h18c0,5.2,1.8,9.5,5.2,12.9,3.5,3.4,7.7,5.1,12.5,5.1s10.2-1.7,13.1-5.1c2.9-3.4,4.4-6.8,4.4-10.1s-1.4-6.5-4.3-8.6c-2.8-2.1-6.4-4-10.8-5.6-6.9-3-14.5-6.1-23-9.5-8.5-3.3-12.7-10.4-12.7-21.2s3.4-14.5,10.3-20.5C22.6,4.8,30.6,1.8,39.9,1.8s18.4,3.1,24.3,9.2c5.9,6.2,9.1,12.9,9.6,20.3h-17.8c0-2.8-1.5-5.9-4.4-9.1Z"/>
  <polygon class="st0" points="106.9 88.8 106.9 59.6 106.9 44 106.9 19.8 160.7 19.8 160.7 4.3 88.9 4.3 88.9 104.3 161.9 104.3 161.9 88.8 106.9 88.8"/>
  <path class="st1" d="M210.8,50.5c3.8,0,7.3-1.4,10.6-4.2,3.2-2.8,4.9-6.5,4.9-11s-1.6-8.6-4.9-11.4-6.8-4.1-10.6-4.1h-25.4v30.8h25.4Z"/>
  <path class="st0" d="M227.5,56.1c5.6-6.2,8.4-13.1,8.4-20.8s-3.2-16.6-9.6-22.4c-6.4-5.8-13.5-8.6-21.1-8.6h-28v15.5h25.4c3.8,0,7.3,1.4,10.6,4.1s4.9,6.5,4.9,11.4-1.6,8.2-4.9,11-6.8,4.2-10.6,4.2h-25.4v2.8l39.3,51h19.5l-29.5-38.5c8.5-.3,15.5-3.6,21.1-9.8Z"/>
  <path class="st1" d="M296.8,50.5c3.8,0,7.3-1.4,10.6-4.2,3.2-2.8,4.9-6.5,4.9-11s-1.6-8.6-4.9-11.4-6.8-4.1-10.6-4.1h-25.4v30.8h25.4Z"/>
  <path class="st0" d="M325.8,12.9c-6.4-5.8-13.5-8.7-21.1-8.7h-46v15.5h43.4c3.8,0,7.3,1.4,10.6,4.1s4.9,6.5,4.9,11.4-1.6,8.2-4.9,11-6.8,4.2-10.6,4.2h-43.4v53.8h18v-38.3h28c7.8,0,14.9-2.9,21.3-8.5s9.5-13.1,9.5-22.1-3.2-16.7-9.6-22.5h0Z"/>
  <polygon class="st1" points="386.5 24.3 369.5 63.3 403.3 63.3 386.5 24.3"/>
  <polygon class="st0" points="395.3 4.3 377.5 4.3 334 104.3 352 104.3 363 78.8 369.5 63.3 386.5 24.3 403.3 63.3 409.8 78.8 420.8 104.3 438.8 104.3 395.3 4.3"/>
</svg>  